<?xml version="1.0" encoding="utf-8"?>
<!-- Generator: Adobe Illustrator 15.0.0, SVG Export Plug-In . SVG Version: 6.00 Build 0)  -->
<!DOCTYPE svg PUBLIC "-//W3C//DTD SVG 1.1//EN" "http://www.w3.org/Graphics/SVG/1.1/DTD/svg11.dtd">
<svg version="1.1" id="Layer_1" xmlns="http://www.w3.org/2000/svg" xmlns:xlink="http://www.w3.org/1999/xlink" x="0px" y="0px"
     width="900px" height="900px" viewBox="0 0 900 900" enable-background="new 0 0 900 900" xml:space="preserve">
<path fill="#E6E9EA" d="M882.054,450.796c0,237.937-192.888,430.829-430.825,430.829c-237.933,0-430.816-192.893-430.816-430.829
                        c0-237.927,192.884-430.812,430.816-430.812C689.166,19.983,882.054,212.869,882.054,450.796z"/>
<rect x="210.573" y="246.412" fill="#25313F" width="482.75" height="36.713"/>
<polygon fill="#FFFFFF" points="318.61,283.125 318.61,283.125 210.573,283.125 210.573,553.87 318.61,553.87 318.61,553.87 
                                693.319,553.87 693.319,283.125 "/>
<g>
  <g>
    <rect x="233.418" y="311.68" fill="#0098CA" width="62.351" height="6.854"/>
  </g>
  <g>
    <rect x="233.418" y="334.525" fill="#0098CA" width="62.351" height="6.854"/>
  </g>
  <g>
    <rect x="233.418" y="357.366" fill="#0098CA" width="62.351" height="6.858"/>
  </g>
  <g>
    <rect x="233.418" y="380.212" fill="#0098CA" width="62.351" height="6.854"/>
  </g>
  <g>
    <rect x="233.418" y="403.058" fill="#0098CA" width="62.351" height="6.854"/>
  </g>
</g>
<polygon fill="#25313F" points="609.58,729.968 451.949,572.337 294.32,729.968 307.7,743.348 442.489,608.559 442.489,790.482 
                                461.409,790.482 461.409,608.554 596.199,743.348 "/>
<g>
  <path fill="#0098CA" d="M500.77,419.952c-0.506,27.364-23.078,49.144-50.448,48.636c-27.363-0.508-49.132-23.094-48.626-50.457
                          c0.509-27.362,23.089-49.141,50.453-48.636C479.528,369.997,501.279,392.589,500.77,419.952z"/>
  <g>
    <polygon fill="#FFFFFF" points="463.244,424.925 439.625,400.416 445.394,394.872 469.016,419.366"/>
    <polygon fill="#FFFFFF" points="469.016,419.366 444.503,442.985 438.949,437.226 463.463,413.608"/>
  </g>
</g>
</svg>